<svg width="40" height="40" viewBox="0 0 40 40" fill="none" xmlns="http://www.w3.org/2000/svg">
<g id="Logo">
<path id="Vector" d="M6.66699 33.3335L23.3337 16.6668M23.3337 16.6668V8.3335L16.667 15.0002M23.3337 16.6668H31.667M16.667 15.0002V23.3335H25.0003M16.667 15.0002L10.0003 21.6668V30.0002H18.3337" stroke-width="1.66667" stroke-linecap="round" stroke-linejoin="round"/>
<path id="Vector_2" d="M23.333 8.33317C24.393 7.27817 25.8547 6.6665 27.4713 6.6665C28.2408 6.66607 29.0028 6.81722 29.7139 7.11133C30.4249 7.40544 31.071 7.83674 31.6154 8.3806C32.1597 8.92447 32.5916 9.57024 32.8863 10.281C33.181 10.9918 33.3328 11.7537 33.333 12.5232C33.333 14.1415 32.7297 15.6065 31.6663 16.6665L24.9997 23.3332L18.333 29.9998" stroke-width="1.66667" stroke-linecap="round" stroke-linejoin="round"/>
</g>
</svg>
